<svg width="32" height="32" viewBox="0 0 32 32" fill="none" xmlns="http://www.w3.org/2000/svg">
<g filter="url(#filter0_i_107_138)">
<rect width="32" height="32" rx="16" fill="#FDFDFD" fill-opacity="0.2"/>
<rect x="0.5" y="0.5" width="31" height="31" rx="15.5" stroke="#F9F9FB" stroke-opacity="0.15"/>
<path d="M10.081 22.248C9.41367 22.248 8.91533 22.0573 8.586 21.676C8.25667 21.2947 8.12667 20.7313 8.196 19.986L8.352 18.374C8.38667 18.0447 8.35633 17.802 8.261 17.646C8.16567 17.49 7.99667 17.412 7.754 17.412H7.39V16.515H7.754C7.99667 16.515 8.16567 16.437 8.261 16.281C8.35633 16.1163 8.38667 15.8737 8.352 15.553L8.196 13.98C8.12667 13.226 8.25667 12.6627 8.586 12.29C8.91533 11.9087 9.41367 11.718 10.081 11.718H10.731V12.641H10.185C9.795 12.641 9.51767 12.7407 9.353 12.94C9.197 13.1393 9.14067 13.4687 9.184 13.928L9.314 15.358C9.34867 15.696 9.33567 15.9863 9.275 16.229C9.21433 16.463 9.08867 16.658 8.898 16.814C8.716 16.97 8.456 17.0957 8.118 17.191V16.775C8.456 16.8443 8.716 16.957 8.898 17.113C9.08867 17.269 9.21433 17.4683 9.275 17.711C9.33567 17.945 9.34867 18.231 9.314 18.569L9.184 20.038C9.14933 20.4973 9.21 20.8223 9.366 21.013C9.522 21.2123 9.795 21.312 10.185 21.312H10.731V22.248H10.081ZM11.6051 21L15.2971 11.978H16.1811L19.8601 21H18.5341L15.5051 13.369H15.9601L12.9051 21H11.6051ZM13.3601 18.959V17.893H18.1051V18.959H13.3601ZM21.3719 22.248H20.7219V21.312H21.2679C21.6579 21.312 21.9309 21.2123 22.0869 21.013C22.2429 20.8223 22.3036 20.4973 22.2689 20.038L22.1389 18.569C22.1129 18.231 22.1259 17.945 22.1779 17.711C22.2386 17.4683 22.3599 17.269 22.5419 17.113C22.7326 16.957 22.9969 16.8443 23.3349 16.775V17.191C22.9969 17.0957 22.7326 16.97 22.5419 16.814C22.3599 16.658 22.2386 16.463 22.1779 16.229C22.1259 15.9863 22.1129 15.696 22.1389 15.358L22.2689 13.928C22.3122 13.4687 22.2516 13.1393 22.0869 12.94C21.9309 12.7407 21.6579 12.641 21.2679 12.641H20.7219V11.718H21.3719C22.0392 11.718 22.5376 11.9087 22.8669 12.29C23.2049 12.6627 23.3349 13.226 23.2569 13.98L23.1009 15.553C23.0662 15.8737 23.0966 16.1163 23.1919 16.281C23.2872 16.437 23.4562 16.515 23.6989 16.515H24.0629V17.412H23.6989C23.4562 17.412 23.2872 17.49 23.1919 17.646C23.0966 17.802 23.0662 18.0447 23.1009 18.374L23.2569 19.986C23.3262 20.7313 23.1962 21.2947 22.8669 21.676C22.5376 22.0573 22.0392 22.248 21.3719 22.248Z" fill="#EDEDED"/>
</g>
<defs>
<filter id="filter0_i_107_138" x="0" y="0" width="32" height="36" filterUnits="userSpaceOnUse" color-interpolation-filters="sRGB">
<feFlood flood-opacity="0" result="BackgroundImageFix"/>
<feBlend mode="normal" in="SourceGraphic" in2="BackgroundImageFix" result="shape"/>
<feColorMatrix in="SourceAlpha" type="matrix" values="0 0 0 0 0 0 0 0 0 0 0 0 0 0 0 0 0 0 127 0" result="hardAlpha"/>
<feOffset dy="4"/>
<feGaussianBlur stdDeviation="2"/>
<feComposite in2="hardAlpha" operator="arithmetic" k2="-1" k3="1"/>
<feColorMatrix type="matrix" values="0 0 0 0 0 0 0 0 0 0 0 0 0 0 0 0 0 0 0.25 0"/>
<feBlend mode="normal" in2="shape" result="effect1_innerShadow_107_138"/>
</filter>
</defs>
</svg>
